<svg width="180" height="180" viewBox="0 0 100 100" fill="none" xmlns="http://www.w3.org/2000/svg">
  <rect width="100" height="100" fill="white"/>

  <!-- Left minaret -->
  <rect x="7" y="45" width="10" height="50" fill="black"/>
  <polygon points="7,45 12,29 17,45" fill="black"/>
  <circle cx="12" cy="27" r="2.5" fill="black"/>

  <!-- Right minaret -->
  <rect x="83" y="45" width="10" height="50" fill="black"/>
  <polygon points="83,45 88,29 93,45" fill="black"/>
  <circle cx="88" cy="27" r="2.5" fill="black"/>

  <!-- Main building body -->
  <rect x="26" y="62" width="48" height="33" fill="black"/>

  <!-- Main dome -->
  <path d="M26,62 Q50,28 74,62Z" fill="black"/>

  <!-- Door arch cutout -->
  <path d="M43,95 L43,74 Q50,65 57,74 L57,95Z" fill="white"/>

  <!-- Side windows -->
  <circle cx="36" cy="72" r="3.5" fill="white"/>
  <circle cx="64" cy="72" r="3.5" fill="white"/>

  <!-- Crescent on dome peak -->
  <defs>
    <mask id="cres">
      <circle cx="50" cy="30" r="6.5" fill="white"/>
      <circle cx="53" cy="27.5" r="5" fill="black"/>
    </mask>
  </defs>
  <rect x="43" y="23" width="14" height="14" fill="black" mask="url(#cres)"/>

  <!-- Star next to crescent -->
  <circle cx="58.5" cy="23.5" r="1.8" fill="black"/>
</svg>
